<svg width="18" height="18" viewBox="0 0 18 18" fill="none" xmlns="http://www.w3.org/2000/svg">
<path d="M9 11.25C10.2426 11.25 11.25 10.2426 11.25 9C11.25 7.75736 10.2426 6.75 9 6.75C7.75736 6.75 6.75 7.75736 6.75 9C6.75 10.2426 7.75736 11.25 9 11.25Z" stroke="#2A6EBB" stroke-width="1.3" stroke-linecap="round" stroke-linejoin="round"/>
<path d="M14.9999 8.99979C14.9934 8.49273 14.9218 7.9886 14.7869 7.49979L16.7069 5.84979L15.5819 3.89979L13.2134 4.73379C12.4821 4.01777 11.5793 3.50131 10.5914 3.23379L10.1249 0.749786H7.87492L7.40842 3.23979C6.42051 3.50731 5.51774 4.02377 4.78642 4.73979L2.41792 3.89979L1.29292 5.84979L3.21292 7.49979C3.07799 7.9886 3.0064 8.49273 2.99992 8.99979C3.0064 9.50684 3.07799 10.011 3.21292 10.4998L1.29292 12.1498L2.41792 14.0998L4.78642 13.2673C5.51774 13.9833 6.42051 14.4998 7.40842 14.7673L7.87492 17.2498H10.1249L10.5914 14.7598C11.5793 14.4923 12.4821 13.9758 13.2134 13.2598L15.5819 14.0923L16.7069 12.1423L14.7869 10.4998C14.9218 10.011 14.9934 9.50684 14.9999 8.99979V8.99979Z" stroke="#2A6EBB" stroke-width="1.3" stroke-linecap="round" stroke-linejoin="round"/>
</svg>
