<svg width="42" height="42" viewBox="0 0 42 42" fill="none" xmlns="http://www.w3.org/2000/svg">
<path d="M13.9514 17.9587C13.3094 16.606 11.93 15.666 10.3334 15.666H5.00001C2.79067 15.666 1 17.4567 1 19.666V24.9994L3.66667 26.3327L4.33334 35.6661H11.6667" stroke="#B2B2B2" stroke-width="2" stroke-miterlimit="10"/>
<path d="M7.66676 11.667C9.87591 11.667 11.6668 9.87615 11.6668 7.667C11.6668 5.45786 9.87591 3.66699 7.66676 3.66699C5.45761 3.66699 3.66675 5.45786 3.66675 7.667C3.66675 9.87615 5.45761 11.667 7.66676 11.667Z" stroke="#F35B46" stroke-width="2" stroke-miterlimit="10" stroke-linecap="square"/>
<path d="M28.0488 17.9587C28.6908 16.606 30.0702 15.666 31.6668 15.666H37.0002C39.2095 15.666 41.0002 17.4567 41.0002 19.666V24.9994L38.3335 26.3327L37.6669 35.6661H30.3335" stroke="#B2B2B2" stroke-width="2" stroke-miterlimit="10"/>
<path d="M34.3335 11.667C36.5427 11.667 38.3335 9.87615 38.3335 7.667C38.3335 5.45786 36.5427 3.66699 34.3335 3.66699C32.1244 3.66699 30.3335 5.45786 30.3335 7.667C30.3335 9.87615 32.1244 11.667 34.3335 11.667Z" stroke="#F35B46" stroke-width="2" stroke-miterlimit="10" stroke-linecap="square"/>
<path d="M25.0003 40.9994H17.0003L16.3336 30.3327L13.0002 29.6661V20.9994C13.0002 18.054 15.3883 15.666 18.3336 15.666H23.6669C26.6123 15.666 29.0003 18.054 29.0003 20.9994V29.6661L25.6669 30.3327L25.0003 40.9994Z" stroke="#B2B2B2" stroke-width="2" stroke-miterlimit="10" stroke-linecap="square"/>
<path d="M21.0001 11.6667C23.9456 11.6667 26.3334 9.27888 26.3334 6.33335C26.3334 3.38782 23.9456 1 21.0001 1C18.0546 1 15.6667 3.38782 15.6667 6.33335C15.6667 9.27888 18.0546 11.6667 21.0001 11.6667Z" stroke="#F35B46" stroke-width="2" stroke-miterlimit="10" stroke-linecap="square"/>
</svg>
